<mxfile host="app.diagrams.net" agent="Mozilla/5.0 (Windows NT 10.0; Win64; x64) AppleWebKit/537.36 (KHTML, like Gecko) Chrome/140.0.0.0 Safari/537.36 Edg/140.0.0.0" version="28.2.5">
  <diagram name="Página-1" id="-jLKSvPIn65qSS2F7HPh">
    <mxGraphModel grid="1" page="1" gridSize="10" guides="1" tooltips="1" connect="1" arrows="1" fold="1" pageScale="1" pageWidth="827" pageHeight="1169" math="0" shadow="0">
      <root>
        <mxCell id="0" />
        <mxCell id="1" parent="0" />
        <mxCell id="TeCShdE1Z81waskxQipX-1" value="Camionero" style="rounded=0;whiteSpace=wrap;html=1;" vertex="1" parent="1">
          <mxGeometry x="200" y="110" width="120" height="60" as="geometry" />
        </mxCell>
        <mxCell id="TeCShdE1Z81waskxQipX-2" value="Paquete" style="rounded=0;whiteSpace=wrap;html=1;" vertex="1" parent="1">
          <mxGeometry x="630" y="80" width="120" height="60" as="geometry" />
        </mxCell>
        <mxCell id="ydBMQNNp6C6qHKVE9HHm-25" style="edgeStyle=orthogonalEdgeStyle;rounded=0;orthogonalLoop=1;jettySize=auto;html=1;exitX=0.5;exitY=0;exitDx=0;exitDy=0;entryX=0.5;entryY=1;entryDx=0;entryDy=0;startArrow=none;startFill=0;endArrow=none;endFill=0;" edge="1" parent="1" source="TeCShdE1Z81waskxQipX-3" target="ydBMQNNp6C6qHKVE9HHm-23">
          <mxGeometry relative="1" as="geometry" />
        </mxCell>
        <mxCell id="TeCShdE1Z81waskxQipX-3" value="Provincia" style="rounded=0;whiteSpace=wrap;html=1;" vertex="1" parent="1">
          <mxGeometry x="630" y="350" width="120" height="60" as="geometry" />
        </mxCell>
        <mxCell id="TeCShdE1Z81waskxQipX-4" value="Camión" style="rounded=0;whiteSpace=wrap;html=1;" vertex="1" parent="1">
          <mxGeometry x="130" y="320" width="120" height="60" as="geometry" />
        </mxCell>
        <mxCell id="TeCShdE1Z81waskxQipX-5" value="Tel" style="ellipse;whiteSpace=wrap;html=1;" vertex="1" parent="1">
          <mxGeometry x="50" y="120" width="90" height="30" as="geometry" />
        </mxCell>
        <mxCell id="TeCShdE1Z81waskxQipX-6" value="Dirección" style="ellipse;whiteSpace=wrap;html=1;" vertex="1" parent="1">
          <mxGeometry x="70" y="160" width="90" height="30" as="geometry" />
        </mxCell>
        <mxCell id="TeCShdE1Z81waskxQipX-7" value="Nombre" style="ellipse;whiteSpace=wrap;html=1;" vertex="1" parent="1">
          <mxGeometry x="80" y="70" width="90" height="30" as="geometry" />
        </mxCell>
        <mxCell id="TeCShdE1Z81waskxQipX-8" value="Salario" style="ellipse;whiteSpace=wrap;html=1;" vertex="1" parent="1">
          <mxGeometry x="180" y="60" width="90" height="30" as="geometry" />
        </mxCell>
        <mxCell id="ydBMQNNp6C6qHKVE9HHm-1" value="L. Procedencia" style="ellipse;whiteSpace=wrap;html=1;" vertex="1" parent="1">
          <mxGeometry x="160" y="190" width="90" height="30" as="geometry" />
        </mxCell>
        <mxCell id="ydBMQNNp6C6qHKVE9HHm-2" value="Distribuye" style="rhombus;whiteSpace=wrap;html=1;" vertex="1" parent="1">
          <mxGeometry x="420" y="110" width="70" height="60" as="geometry" />
        </mxCell>
        <mxCell id="ydBMQNNp6C6qHKVE9HHm-3" value="Conduce" style="rhombus;whiteSpace=wrap;html=1;" vertex="1" parent="1">
          <mxGeometry x="320" y="230" width="70" height="60" as="geometry" />
        </mxCell>
        <mxCell id="ydBMQNNp6C6qHKVE9HHm-4" value="Fecha" style="ellipse;whiteSpace=wrap;html=1;" vertex="1" parent="1">
          <mxGeometry x="400" y="250" width="60" height="30" as="geometry" />
        </mxCell>
        <mxCell id="ydBMQNNp6C6qHKVE9HHm-6" value="Tipo" style="ellipse;whiteSpace=wrap;html=1;" vertex="1" parent="1">
          <mxGeometry x="155" y="420" width="70" height="30" as="geometry" />
        </mxCell>
        <mxCell id="ydBMQNNp6C6qHKVE9HHm-7" value="Modelo" style="ellipse;whiteSpace=wrap;html=1;" vertex="1" parent="1">
          <mxGeometry x="60" y="400" width="70" height="30" as="geometry" />
        </mxCell>
        <mxCell id="ydBMQNNp6C6qHKVE9HHm-8" value="&lt;u&gt;Matricula&lt;/u&gt;" style="ellipse;whiteSpace=wrap;html=1;" vertex="1" parent="1">
          <mxGeometry x="40" y="335" width="70" height="30" as="geometry" />
        </mxCell>
        <mxCell id="ydBMQNNp6C6qHKVE9HHm-9" value="Potencia" style="ellipse;whiteSpace=wrap;html=1;" vertex="1" parent="1">
          <mxGeometry x="85" y="270" width="70" height="30" as="geometry" />
        </mxCell>
        <mxCell id="ydBMQNNp6C6qHKVE9HHm-10" value="&lt;u&gt;Cédula&lt;/u&gt;" style="ellipse;whiteSpace=wrap;html=1;" vertex="1" parent="1">
          <mxGeometry x="290" y="60" width="90" height="30" as="geometry" />
        </mxCell>
        <mxCell id="ydBMQNNp6C6qHKVE9HHm-11" value="Llegar" style="rhombus;whiteSpace=wrap;html=1;" vertex="1" parent="1">
          <mxGeometry x="530" y="190" width="70" height="60" as="geometry" />
        </mxCell>
        <mxCell id="ydBMQNNp6C6qHKVE9HHm-12" value="&lt;u&gt;Cód&lt;/u&gt;" style="ellipse;whiteSpace=wrap;html=1;" vertex="1" parent="1">
          <mxGeometry x="580" y="20" width="90" height="30" as="geometry" />
        </mxCell>
        <mxCell id="ydBMQNNp6C6qHKVE9HHm-13" value="Descripción" style="ellipse;whiteSpace=wrap;html=1;" vertex="1" parent="1">
          <mxGeometry x="680" y="30" width="90" height="30" as="geometry" />
        </mxCell>
        <mxCell id="ydBMQNNp6C6qHKVE9HHm-14" value="Dirección" style="ellipse;whiteSpace=wrap;html=1;" vertex="1" parent="1">
          <mxGeometry x="650" y="170" width="90" height="30" as="geometry" />
        </mxCell>
        <mxCell id="ydBMQNNp6C6qHKVE9HHm-15" value="Destinatario" style="ellipse;whiteSpace=wrap;html=1;" vertex="1" parent="1">
          <mxGeometry x="770" y="140" width="90" height="30" as="geometry" />
        </mxCell>
        <mxCell id="ydBMQNNp6C6qHKVE9HHm-16" value="D. Destinatario" style="ellipse;whiteSpace=wrap;html=1;" vertex="1" parent="1">
          <mxGeometry x="780" y="70" width="90" height="30" as="geometry" />
        </mxCell>
        <mxCell id="ydBMQNNp6C6qHKVE9HHm-23" value="&lt;u&gt;Cód&lt;/u&gt;" style="ellipse;whiteSpace=wrap;html=1;" vertex="1" parent="1">
          <mxGeometry x="640" y="300" width="110" height="30" as="geometry" />
        </mxCell>
        <mxCell id="ydBMQNNp6C6qHKVE9HHm-24" value="Nombre" style="ellipse;whiteSpace=wrap;html=1;" vertex="1" parent="1">
          <mxGeometry x="780" y="365" width="110" height="30" as="geometry" />
        </mxCell>
        <mxCell id="ydBMQNNp6C6qHKVE9HHm-27" value="" style="endArrow=none;html=1;rounded=0;entryX=0;entryY=0.5;entryDx=0;entryDy=0;exitX=1;exitY=0.5;exitDx=0;exitDy=0;" edge="1" parent="1" source="TeCShdE1Z81waskxQipX-3" target="ydBMQNNp6C6qHKVE9HHm-24">
          <mxGeometry width="50" height="50" relative="1" as="geometry">
            <mxPoint x="430" y="270" as="sourcePoint" />
            <mxPoint x="480" y="220" as="targetPoint" />
          </mxGeometry>
        </mxCell>
        <mxCell id="ydBMQNNp6C6qHKVE9HHm-28" value="" style="endArrow=none;html=1;rounded=0;entryX=0.5;entryY=1;entryDx=0;entryDy=0;exitX=1;exitY=0;exitDx=0;exitDy=0;" edge="1" parent="1" source="TeCShdE1Z81waskxQipX-1" target="ydBMQNNp6C6qHKVE9HHm-10">
          <mxGeometry width="50" height="50" relative="1" as="geometry">
            <mxPoint x="430" y="270" as="sourcePoint" />
            <mxPoint x="480" y="220" as="targetPoint" />
          </mxGeometry>
        </mxCell>
        <mxCell id="ydBMQNNp6C6qHKVE9HHm-29" value="" style="endArrow=none;html=1;rounded=0;entryX=0.5;entryY=1;entryDx=0;entryDy=0;exitX=0.5;exitY=0;exitDx=0;exitDy=0;" edge="1" parent="1" source="TeCShdE1Z81waskxQipX-1" target="TeCShdE1Z81waskxQipX-8">
          <mxGeometry width="50" height="50" relative="1" as="geometry">
            <mxPoint x="430" y="270" as="sourcePoint" />
            <mxPoint x="480" y="220" as="targetPoint" />
          </mxGeometry>
        </mxCell>
        <mxCell id="ydBMQNNp6C6qHKVE9HHm-30" value="" style="endArrow=none;html=1;rounded=0;entryX=1;entryY=1;entryDx=0;entryDy=0;exitX=0;exitY=0;exitDx=0;exitDy=0;" edge="1" parent="1" source="TeCShdE1Z81waskxQipX-1" target="TeCShdE1Z81waskxQipX-7">
          <mxGeometry width="50" height="50" relative="1" as="geometry">
            <mxPoint x="430" y="270" as="sourcePoint" />
            <mxPoint x="480" y="220" as="targetPoint" />
          </mxGeometry>
        </mxCell>
        <mxCell id="ydBMQNNp6C6qHKVE9HHm-31" value="" style="endArrow=none;html=1;rounded=0;entryX=1;entryY=0.5;entryDx=0;entryDy=0;exitX=0;exitY=0.5;exitDx=0;exitDy=0;" edge="1" parent="1" source="TeCShdE1Z81waskxQipX-1" target="TeCShdE1Z81waskxQipX-5">
          <mxGeometry width="50" height="50" relative="1" as="geometry">
            <mxPoint x="430" y="270" as="sourcePoint" />
            <mxPoint x="480" y="220" as="targetPoint" />
          </mxGeometry>
        </mxCell>
        <mxCell id="ydBMQNNp6C6qHKVE9HHm-32" value="" style="endArrow=none;html=1;rounded=0;entryX=1;entryY=0.5;entryDx=0;entryDy=0;exitX=0;exitY=1;exitDx=0;exitDy=0;" edge="1" parent="1" source="TeCShdE1Z81waskxQipX-1" target="TeCShdE1Z81waskxQipX-6">
          <mxGeometry width="50" height="50" relative="1" as="geometry">
            <mxPoint x="430" y="270" as="sourcePoint" />
            <mxPoint x="480" y="220" as="targetPoint" />
          </mxGeometry>
        </mxCell>
        <mxCell id="ydBMQNNp6C6qHKVE9HHm-33" value="" style="endArrow=none;html=1;rounded=0;entryX=0.5;entryY=0;entryDx=0;entryDy=0;exitX=0.25;exitY=1;exitDx=0;exitDy=0;" edge="1" parent="1" source="TeCShdE1Z81waskxQipX-1" target="ydBMQNNp6C6qHKVE9HHm-1">
          <mxGeometry width="50" height="50" relative="1" as="geometry">
            <mxPoint x="430" y="270" as="sourcePoint" />
            <mxPoint x="480" y="220" as="targetPoint" />
          </mxGeometry>
        </mxCell>
        <mxCell id="ydBMQNNp6C6qHKVE9HHm-34" value="" style="endArrow=none;html=1;rounded=0;exitX=1;exitY=0.5;exitDx=0;exitDy=0;" edge="1" parent="1" source="TeCShdE1Z81waskxQipX-1" target="ydBMQNNp6C6qHKVE9HHm-2">
          <mxGeometry width="50" height="50" relative="1" as="geometry">
            <mxPoint x="430" y="320" as="sourcePoint" />
            <mxPoint x="480" y="270" as="targetPoint" />
          </mxGeometry>
        </mxCell>
        <mxCell id="ydBMQNNp6C6qHKVE9HHm-35" value="" style="endArrow=none;html=1;rounded=0;entryX=1;entryY=0.5;entryDx=0;entryDy=0;exitX=0;exitY=0.5;exitDx=0;exitDy=0;" edge="1" parent="1" source="TeCShdE1Z81waskxQipX-2" target="ydBMQNNp6C6qHKVE9HHm-2">
          <mxGeometry width="50" height="50" relative="1" as="geometry">
            <mxPoint x="430" y="320" as="sourcePoint" />
            <mxPoint x="480" y="270" as="targetPoint" />
          </mxGeometry>
        </mxCell>
        <mxCell id="ydBMQNNp6C6qHKVE9HHm-36" value="" style="endArrow=none;html=1;rounded=0;entryX=0;entryY=0;entryDx=0;entryDy=0;exitX=0.5;exitY=1;exitDx=0;exitDy=0;" edge="1" parent="1" source="ydBMQNNp6C6qHKVE9HHm-12" target="TeCShdE1Z81waskxQipX-2">
          <mxGeometry width="50" height="50" relative="1" as="geometry">
            <mxPoint x="430" y="320" as="sourcePoint" />
            <mxPoint x="480" y="270" as="targetPoint" />
          </mxGeometry>
        </mxCell>
        <mxCell id="ydBMQNNp6C6qHKVE9HHm-37" value="" style="endArrow=none;html=1;rounded=0;entryX=0.5;entryY=1;entryDx=0;entryDy=0;exitX=0.5;exitY=0;exitDx=0;exitDy=0;" edge="1" parent="1" source="TeCShdE1Z81waskxQipX-2" target="ydBMQNNp6C6qHKVE9HHm-13">
          <mxGeometry width="50" height="50" relative="1" as="geometry">
            <mxPoint x="430" y="320" as="sourcePoint" />
            <mxPoint x="480" y="270" as="targetPoint" />
          </mxGeometry>
        </mxCell>
        <mxCell id="ydBMQNNp6C6qHKVE9HHm-38" value="" style="endArrow=none;html=1;rounded=0;entryX=0.5;entryY=1;entryDx=0;entryDy=0;exitX=1;exitY=0.5;exitDx=0;exitDy=0;" edge="1" parent="1" source="TeCShdE1Z81waskxQipX-2" target="ydBMQNNp6C6qHKVE9HHm-16">
          <mxGeometry width="50" height="50" relative="1" as="geometry">
            <mxPoint x="430" y="320" as="sourcePoint" />
            <mxPoint x="480" y="270" as="targetPoint" />
          </mxGeometry>
        </mxCell>
        <mxCell id="ydBMQNNp6C6qHKVE9HHm-39" value="" style="endArrow=none;html=1;rounded=0;entryX=0;entryY=0.5;entryDx=0;entryDy=0;exitX=1;exitY=1;exitDx=0;exitDy=0;" edge="1" parent="1" source="TeCShdE1Z81waskxQipX-2" target="ydBMQNNp6C6qHKVE9HHm-15">
          <mxGeometry width="50" height="50" relative="1" as="geometry">
            <mxPoint x="430" y="320" as="sourcePoint" />
            <mxPoint x="480" y="270" as="targetPoint" />
          </mxGeometry>
        </mxCell>
        <mxCell id="ydBMQNNp6C6qHKVE9HHm-40" value="" style="endArrow=none;html=1;rounded=0;entryX=0.5;entryY=0;entryDx=0;entryDy=0;exitX=0.5;exitY=1;exitDx=0;exitDy=0;" edge="1" parent="1" source="TeCShdE1Z81waskxQipX-2" target="ydBMQNNp6C6qHKVE9HHm-14">
          <mxGeometry width="50" height="50" relative="1" as="geometry">
            <mxPoint x="430" y="320" as="sourcePoint" />
            <mxPoint x="480" y="270" as="targetPoint" />
          </mxGeometry>
        </mxCell>
        <mxCell id="ydBMQNNp6C6qHKVE9HHm-41" value="" style="endArrow=none;html=1;rounded=0;entryX=1;entryY=1;entryDx=0;entryDy=0;exitX=0.5;exitY=0;exitDx=0;exitDy=0;" edge="1" parent="1" source="ydBMQNNp6C6qHKVE9HHm-3" target="TeCShdE1Z81waskxQipX-1">
          <mxGeometry width="50" height="50" relative="1" as="geometry">
            <mxPoint x="430" y="320" as="sourcePoint" />
            <mxPoint x="480" y="270" as="targetPoint" />
          </mxGeometry>
        </mxCell>
        <mxCell id="ydBMQNNp6C6qHKVE9HHm-42" value="" style="endArrow=none;html=1;rounded=0;entryX=1;entryY=0;entryDx=0;entryDy=0;exitX=0.5;exitY=1;exitDx=0;exitDy=0;" edge="1" parent="1" source="ydBMQNNp6C6qHKVE9HHm-3" target="TeCShdE1Z81waskxQipX-4">
          <mxGeometry width="50" height="50" relative="1" as="geometry">
            <mxPoint x="430" y="320" as="sourcePoint" />
            <mxPoint x="480" y="270" as="targetPoint" />
          </mxGeometry>
        </mxCell>
        <mxCell id="ydBMQNNp6C6qHKVE9HHm-43" value="" style="endArrow=none;html=1;rounded=0;entryX=1;entryY=0.5;entryDx=0;entryDy=0;exitX=0;exitY=0.5;exitDx=0;exitDy=0;" edge="1" parent="1" source="ydBMQNNp6C6qHKVE9HHm-4" target="ydBMQNNp6C6qHKVE9HHm-3">
          <mxGeometry width="50" height="50" relative="1" as="geometry">
            <mxPoint x="430" y="320" as="sourcePoint" />
            <mxPoint x="480" y="270" as="targetPoint" />
          </mxGeometry>
        </mxCell>
        <mxCell id="ydBMQNNp6C6qHKVE9HHm-44" value="" style="endArrow=none;html=1;rounded=0;entryX=1;entryY=1;entryDx=0;entryDy=0;exitX=0.25;exitY=0;exitDx=0;exitDy=0;" edge="1" parent="1" source="TeCShdE1Z81waskxQipX-4" target="ydBMQNNp6C6qHKVE9HHm-9">
          <mxGeometry width="50" height="50" relative="1" as="geometry">
            <mxPoint x="430" y="320" as="sourcePoint" />
            <mxPoint x="480" y="270" as="targetPoint" />
          </mxGeometry>
        </mxCell>
        <mxCell id="ydBMQNNp6C6qHKVE9HHm-45" value="" style="endArrow=none;html=1;rounded=0;entryX=1;entryY=0.5;entryDx=0;entryDy=0;exitX=0;exitY=0.5;exitDx=0;exitDy=0;" edge="1" parent="1" source="TeCShdE1Z81waskxQipX-4" target="ydBMQNNp6C6qHKVE9HHm-8">
          <mxGeometry width="50" height="50" relative="1" as="geometry">
            <mxPoint x="430" y="320" as="sourcePoint" />
            <mxPoint x="480" y="270" as="targetPoint" />
          </mxGeometry>
        </mxCell>
        <mxCell id="ydBMQNNp6C6qHKVE9HHm-46" value="" style="endArrow=none;html=1;rounded=0;entryX=1;entryY=0.5;entryDx=0;entryDy=0;exitX=0.25;exitY=1;exitDx=0;exitDy=0;" edge="1" parent="1" source="TeCShdE1Z81waskxQipX-4" target="ydBMQNNp6C6qHKVE9HHm-7">
          <mxGeometry width="50" height="50" relative="1" as="geometry">
            <mxPoint x="430" y="320" as="sourcePoint" />
            <mxPoint x="480" y="270" as="targetPoint" />
          </mxGeometry>
        </mxCell>
        <mxCell id="ydBMQNNp6C6qHKVE9HHm-47" value="" style="endArrow=none;html=1;rounded=0;entryX=0.5;entryY=0;entryDx=0;entryDy=0;exitX=0.5;exitY=1;exitDx=0;exitDy=0;" edge="1" parent="1" source="TeCShdE1Z81waskxQipX-4" target="ydBMQNNp6C6qHKVE9HHm-6">
          <mxGeometry width="50" height="50" relative="1" as="geometry">
            <mxPoint x="430" y="320" as="sourcePoint" />
            <mxPoint x="480" y="270" as="targetPoint" />
          </mxGeometry>
        </mxCell>
        <mxCell id="ydBMQNNp6C6qHKVE9HHm-48" value="" style="endArrow=none;html=1;rounded=0;entryX=0;entryY=1;entryDx=0;entryDy=0;exitX=0.5;exitY=0;exitDx=0;exitDy=0;" edge="1" parent="1" source="ydBMQNNp6C6qHKVE9HHm-11" target="TeCShdE1Z81waskxQipX-2">
          <mxGeometry width="50" height="50" relative="1" as="geometry">
            <mxPoint x="430" y="320" as="sourcePoint" />
            <mxPoint x="480" y="270" as="targetPoint" />
          </mxGeometry>
        </mxCell>
        <mxCell id="ydBMQNNp6C6qHKVE9HHm-50" value="" style="endArrow=none;html=1;rounded=0;entryX=0.5;entryY=1;entryDx=0;entryDy=0;exitX=0;exitY=0;exitDx=0;exitDy=0;" edge="1" parent="1" source="TeCShdE1Z81waskxQipX-3" target="ydBMQNNp6C6qHKVE9HHm-11">
          <mxGeometry width="50" height="50" relative="1" as="geometry">
            <mxPoint x="430" y="320" as="sourcePoint" />
            <mxPoint x="480" y="270" as="targetPoint" />
          </mxGeometry>
        </mxCell>
        <mxCell id="ydBMQNNp6C6qHKVE9HHm-51" value="1...N" style="text;html=1;align=center;verticalAlign=middle;resizable=0;points=[];autosize=1;strokeColor=none;fillColor=none;" vertex="1" parent="1">
          <mxGeometry x="430" y="80" width="50" height="30" as="geometry" />
        </mxCell>
        <mxCell id="ydBMQNNp6C6qHKVE9HHm-52" value="N...M" style="text;html=1;align=center;verticalAlign=middle;resizable=0;points=[];autosize=1;strokeColor=none;fillColor=none;" vertex="1" parent="1">
          <mxGeometry x="350" y="200" width="50" height="30" as="geometry" />
        </mxCell>
        <mxCell id="ydBMQNNp6C6qHKVE9HHm-53" value="N...1" style="text;html=1;align=center;verticalAlign=middle;resizable=0;points=[];autosize=1;strokeColor=none;fillColor=none;" vertex="1" parent="1">
          <mxGeometry x="480" y="205" width="50" height="30" as="geometry" />
        </mxCell>
        <mxCell id="ydBMQNNp6C6qHKVE9HHm-54" value="&lt;font style=&quot;font-size: 24px;&quot;&gt;Modelo Identidad Relación&lt;/font&gt;" style="text;html=1;align=center;verticalAlign=middle;resizable=0;points=[];autosize=1;strokeColor=none;fillColor=none;" vertex="1" parent="1">
          <mxGeometry x="229" y="10" width="310" height="40" as="geometry" />
        </mxCell>
        <mxCell id="ydBMQNNp6C6qHKVE9HHm-57" value="1...1" style="text;html=1;align=center;verticalAlign=middle;resizable=0;points=[];autosize=1;strokeColor=none;fillColor=none;" vertex="1" parent="1">
          <mxGeometry x="575" y="338" width="50" height="30" as="geometry" />
        </mxCell>
        <mxCell id="ydBMQNNp6C6qHKVE9HHm-58" value="1...N" style="text;html=1;align=center;verticalAlign=middle;resizable=0;points=[];autosize=1;strokeColor=none;fillColor=none;" vertex="1" parent="1">
          <mxGeometry x="600" y="150" width="50" height="30" as="geometry" />
        </mxCell>
        <mxCell id="ydBMQNNp6C6qHKVE9HHm-61" value="&lt;font style=&quot;font-size: 24px;&quot;&gt;Modelo Relación&lt;/font&gt;" style="text;html=1;align=center;verticalAlign=middle;resizable=0;points=[];autosize=1;strokeColor=none;fillColor=none;" vertex="1" parent="1">
          <mxGeometry x="29" y="473" width="200" height="40" as="geometry" />
        </mxCell>
        <mxCell id="ydBMQNNp6C6qHKVE9HHm-62" value="1...1" style="text;html=1;align=center;verticalAlign=middle;resizable=0;points=[];autosize=1;strokeColor=none;fillColor=none;" vertex="1" parent="1">
          <mxGeometry x="320" y="100" width="50" height="30" as="geometry" />
        </mxCell>
        <mxCell id="ydBMQNNp6C6qHKVE9HHm-63" value="N...1" style="text;html=1;align=center;verticalAlign=middle;resizable=0;points=[];autosize=1;strokeColor=none;fillColor=none;" vertex="1" parent="1">
          <mxGeometry x="575" y="80" width="50" height="30" as="geometry" />
        </mxCell>
        <mxCell id="ydBMQNNp6C6qHKVE9HHm-64" value="1...N" style="text;html=1;align=center;verticalAlign=middle;resizable=0;points=[];autosize=1;strokeColor=none;fillColor=none;" vertex="1" parent="1">
          <mxGeometry x="250" y="320" width="50" height="30" as="geometry" />
        </mxCell>
        <mxCell id="ydBMQNNp6C6qHKVE9HHm-65" value="1...N" style="text;html=1;align=center;verticalAlign=middle;resizable=0;points=[];autosize=1;strokeColor=none;fillColor=none;" vertex="1" parent="1">
          <mxGeometry x="320" y="150" width="50" height="30" as="geometry" />
        </mxCell>
        <mxCell id="ydBMQNNp6C6qHKVE9HHm-66" value="Caminero (&lt;u&gt;Cédula&lt;/u&gt;, Salario, Nombre, Tel, Dirección, L.Procedencia)" style="text;html=1;align=center;verticalAlign=middle;resizable=0;points=[];autosize=1;strokeColor=none;fillColor=none;" vertex="1" parent="1">
          <mxGeometry x="26" y="578" width="380" height="30" as="geometry" />
        </mxCell>
        <mxCell id="ydBMQNNp6C6qHKVE9HHm-67" value="Paquete ( &lt;u&gt;Cód&lt;/u&gt;, Descripción, D.Destinatario, Dirección, Destinatario, Camionero, Provincia)" style="text;html=1;align=center;verticalAlign=middle;resizable=0;points=[];autosize=1;strokeColor=none;fillColor=none;" vertex="1" parent="1">
          <mxGeometry x="26" y="520" width="510" height="30" as="geometry" />
        </mxCell>
        <mxCell id="ydBMQNNp6C6qHKVE9HHm-68" value="Camión ( &lt;u&gt;Matrícula&lt;/u&gt;, Potencia, Modelo, Tipo)" style="text;html=1;align=center;verticalAlign=middle;resizable=0;points=[];autosize=1;strokeColor=none;fillColor=none;" vertex="1" parent="1">
          <mxGeometry x="30" y="682" width="260" height="30" as="geometry" />
        </mxCell>
        <mxCell id="ydBMQNNp6C6qHKVE9HHm-69" value="Provincia ( &lt;u&gt;Cód&lt;/u&gt;, Nombre)" style="text;html=1;align=center;verticalAlign=middle;resizable=0;points=[];autosize=1;strokeColor=none;fillColor=none;" vertex="1" parent="1">
          <mxGeometry x="29" y="730" width="160" height="30" as="geometry" />
        </mxCell>
        <mxCell id="ydBMQNNp6C6qHKVE9HHm-70" value="Camión-Camionero (Cédula_Camionero, Matrícula_Camión, Fecha)" style="text;html=1;align=center;verticalAlign=middle;resizable=0;points=[];autosize=1;strokeColor=none;fillColor=none;" vertex="1" parent="1">
          <mxGeometry x="26" y="629" width="390" height="30" as="geometry" />
        </mxCell>
        <mxCell id="ydBMQNNp6C6qHKVE9HHm-73" value="" style="endArrow=classic;html=1;rounded=0;entryX=0.247;entryY=0.049;entryDx=0;entryDy=0;entryPerimeter=0;" edge="1" parent="1" target="ydBMQNNp6C6qHKVE9HHm-66">
          <mxGeometry width="50" height="50" relative="1" as="geometry">
            <mxPoint x="433.5" y="550" as="sourcePoint" />
            <mxPoint x="120" y="570" as="targetPoint" />
            <Array as="points">
              <mxPoint x="433.5" y="560" />
              <mxPoint x="120" y="560" />
            </Array>
          </mxGeometry>
        </mxCell>
        <mxCell id="ydBMQNNp6C6qHKVE9HHm-76" value="" style="endArrow=classic;html=1;rounded=0;fontFamily=Helvetica;fontSize=12;fontColor=default;autosize=1;resizable=0;entryX=0.246;entryY=0.969;entryDx=0;entryDy=0;entryPerimeter=0;exitX=0.471;exitY=0.044;exitDx=0;exitDy=0;exitPerimeter=0;" edge="1" parent="1" source="ydBMQNNp6C6qHKVE9HHm-70" target="ydBMQNNp6C6qHKVE9HHm-66">
          <mxGeometry width="50" height="50" relative="1" as="geometry">
            <mxPoint x="260" y="600" as="sourcePoint" />
            <mxPoint x="100" y="560" as="targetPoint" />
            <Array as="points">
              <mxPoint x="210" y="620" />
              <mxPoint x="120" y="620" />
            </Array>
          </mxGeometry>
        </mxCell>
        <mxCell id="ydBMQNNp6C6qHKVE9HHm-79" value="" style="endArrow=classic;html=1;rounded=0;fontFamily=Helvetica;fontSize=12;fontColor=default;autosize=1;resizable=0;exitX=0.738;exitY=1.036;exitDx=0;exitDy=0;exitPerimeter=0;" edge="1" parent="1" source="ydBMQNNp6C6qHKVE9HHm-70">
          <mxGeometry width="50" height="50" relative="1" as="geometry">
            <mxPoint x="260" y="790" as="sourcePoint" />
            <mxPoint x="120" y="690" as="targetPoint" />
            <Array as="points">
              <mxPoint x="314" y="680" />
              <mxPoint x="120" y="680" />
            </Array>
          </mxGeometry>
        </mxCell>
        <mxCell id="ydBMQNNp6C6qHKVE9HHm-80" value="" style="endArrow=classic;html=1;rounded=0;fontFamily=Helvetica;fontSize=12;fontColor=default;autosize=1;resizable=0;exitX=0.923;exitY=0.933;exitDx=0;exitDy=0;exitPerimeter=0;entryX=0.572;entryY=0.119;entryDx=0;entryDy=0;entryPerimeter=0;" edge="1" parent="1" source="ydBMQNNp6C6qHKVE9HHm-67" target="ydBMQNNp6C6qHKVE9HHm-69">
          <mxGeometry width="50" height="50" relative="1" as="geometry">
            <mxPoint x="260" y="690" as="sourcePoint" />
            <mxPoint x="110" y="720" as="targetPoint" />
            <Array as="points">
              <mxPoint x="500" y="720" />
              <mxPoint x="120" y="720" />
            </Array>
          </mxGeometry>
        </mxCell>
        <mxCell id="ydBMQNNp6C6qHKVE9HHm-82" value="BD Empresa Transporte" style="text;html=1;align=center;verticalAlign=middle;resizable=0;points=[];autosize=1;strokeColor=none;fillColor=none;fontFamily=Helvetica;fontSize=12;fontColor=default;" vertex="1" parent="1">
          <mxGeometry x="29" y="15" width="150" height="30" as="geometry" />
        </mxCell>
        <mxCell id="ydBMQNNp6C6qHKVE9HHm-83" value="Richard Chamba" style="text;html=1;align=center;verticalAlign=middle;resizable=0;points=[];autosize=1;strokeColor=none;fillColor=none;fontFamily=Helvetica;fontSize=12;fontColor=default;" vertex="1" parent="1">
          <mxGeometry x="29" y="33" width="110" height="30" as="geometry" />
        </mxCell>
      </root>
    </mxGraphModel>
  </diagram>
</mxfile>
